<svg version="1.1" id="Layer_1" xmlns="http://www.w3.org/2000/svg" xmlns:xlink="http://www.w3.org/1999/xlink" x="0px" y="0px"
	 width="100%" viewBox="0 0 1080 1080" enable-background="new 0 0 1080 1080" xml:space="preserve">
<path fill="none" opacity="1.000000" stroke="#000000" stroke-linecap="round" stroke-linejoin="round" stroke-width="6.000000"
	d="
M39.500000,3.500000 
	C37.913780,362.500000 42.376034,721.500000 39.500000,1080.500000 
"/>
<path fill="none" opacity="1.000000" stroke="#000000" stroke-linecap="round" stroke-linejoin="round" stroke-width="6.000000"
	d="
M1043.500000,3.500000 
	C1042.811523,362.500397 1045.506714,721.499207 1044.000000,1080.500000 
"/>
<path fill="none" opacity="1.000000" stroke="#000000" stroke-linecap="round" stroke-linejoin="round" stroke-width="6.000000"
	d="
M69.500000,23.500000 
	C382.500000,23.500000 695.500000,23.499443 1008.500000,23.513412 
	C1010.338623,23.513494 1012.228210,23.156641 1014.000000,24.000000 
"/>
<path fill="none" opacity="1.000000" stroke="#000000" stroke-linecap="round" stroke-linejoin="round" stroke-width="6.000000"
	d="
M1014.000000,105.000000 
	C1012.228210,105.843361 1010.338623,105.486504 1008.500000,105.486588 
	C695.500000,105.500557 382.500000,105.500000 69.500000,105.500000 
"/>
<path fill="none" opacity="1.000000" stroke="#000000" stroke-linecap="round" stroke-linejoin="round" stroke-width="6.000000"
	d="
M69.500000,49.500000 
	C384.333344,49.500000 699.166687,49.500000 1014.000000,49.500000 
"/>
<path fill="none" opacity="1.000000" stroke="#000000" stroke-linecap="round" stroke-linejoin="round" stroke-width="6.000000"
	d="
M1014.000000,442.000000 
	C1012.228210,442.843353 1010.338623,442.486511 1008.500000,442.486572 
	C695.666687,442.500549 382.833344,442.500000 70.000000,442.500000 
"/>
<path fill="none" opacity="1.000000" stroke="#000000" stroke-linecap="round" stroke-linejoin="round" stroke-width="6.000000"
	d="
M70.000000,1059.500000 
	C384.666656,1059.500000 699.333313,1059.500000 1014.000000,1059.500000 
"/>
<path fill="none" opacity="1.000000" stroke="#000000" stroke-linecap="round" stroke-linejoin="round" stroke-width="6.000000"
	d="
M70.000000,1033.500000 
	C384.666656,1033.500000 699.333313,1033.500000 1014.000000,1033.500000 
"/>
<path fill="none" opacity="1.000000" stroke="#000000" stroke-linecap="round" stroke-linejoin="round" stroke-width="6.000000"
	d="
M69.500000,79.500000 
	C384.166656,79.500000 698.833313,79.500000 1013.500000,79.500000 
"/>
<path fill="none" opacity="1.000000" stroke="#000000" stroke-linecap="round" stroke-linejoin="round" stroke-width="6.000000"
	d="
M1005.500000,1001.000000 
	C1003.913757,1000.028992 1002.163818,1000.524780 1000.500000,1000.524414 
	C873.833313,1000.497803 747.166687,1000.500000 620.500000,1000.500000 
	C552.000000,1000.500000 483.500000,1000.500000 415.000000,1000.500000 
	C375.000000,1000.500000 334.999969,1000.468445 295.000031,1000.522888 
	C285.333160,1000.536011 275.645996,1001.305847 266.005066,1000.884338 
	C252.995819,1000.315613 239.999405,1000.557678 226.999939,1000.533020 
	C181.833435,1000.447449 136.666595,1000.457336 91.500084,1000.544678 
	C84.499466,1000.558228 77.500000,1001.166687 70.500000,1001.500061 
"/>
<path fill="none" opacity="1.000000" stroke="#000000" stroke-linecap="round" stroke-linejoin="round" stroke-width="6.000000"
	d="
M235.250000,918.000000 
	C235.693390,907.995605 235.286240,898.002563 235.105713,887.998108 
	C234.853241,874.005676 235.744492,859.989868 235.400711,846.002441 
	C234.921371,826.498779 235.031967,807.000183 235.052200,787.500061 
	C235.059280,780.666382 236.017303,773.833313 235.098953,766.750000 
	C225.666672,766.750000 216.333328,766.750000 207.155487,766.750000 
	C206.250046,768.780334 206.506409,770.655945 206.506165,772.500000 
	C206.498642,830.166687 206.499512,887.833313 206.500671,945.500000 
	C206.500809,952.351624 206.648392,952.496643 213.500000,952.499512 
	C219.166672,952.501953 224.834869,952.420593 230.499405,952.530701 
	C233.735214,952.593567 235.141403,951.657104 235.101471,947.998901 
	C235.005142,939.169922 234.533203,930.321472 235.459106,921.495728 
	C235.596390,920.186951 236.230072,918.124390 233.500000,918.500000 
"/>
<path fill="none" opacity="1.000000" stroke="#000000" stroke-linecap="round" stroke-linejoin="round" stroke-width="7.000000"
	d="
M1014.000000,975.000000 
	C993.667847,974.692566 973.334778,975.109070 952.995605,974.741699 
	C944.209412,974.583008 935.328003,974.864319 926.499512,974.917786 
	C892.834045,975.121582 859.166687,975.000000 825.500000,975.000000 
	C811.833313,975.000000 798.166626,975.018982 784.500061,974.984009 
	C781.761414,974.976990 778.912231,975.568726 776.462097,973.545898 
	C775.884705,973.069214 774.660156,972.777771 774.026611,973.059814 
	C767.173096,976.111511 759.983826,974.382751 752.999756,974.401245 
	C689.500183,974.569519 625.999817,974.421265 562.500061,974.545898 
	C542.332825,974.585449 522.166382,975.151062 502.000336,975.517700 
	C499.160217,975.569336 496.464996,975.438354 494.411926,972.868713 
	C499.093994,967.189270 506.417603,967.082825 512.549438,964.623352 
	C520.850464,961.293884 529.493408,958.813232 538.007385,956.022461 
	C539.237671,955.619141 540.195679,954.960144 541.357727,953.460510 
	C516.500122,881.493774 491.514282,809.155579 466.412170,736.480896 
	C454.422241,740.780334 442.984711,744.957825 431.488068,748.965759 
	C427.061249,750.509033 422.500000,751.666626 418.000000,753.000000 
"/>
<path fill="none" opacity="1.000000" stroke="#000000" stroke-linecap="round" stroke-linejoin="round" stroke-width="6.000000"
	d="
M762.500000,414.500000 
	C760.269165,416.176086 757.753723,416.545471 754.999878,416.537354 
	C732.500061,416.471008 710.000000,416.500000 687.500000,416.500000 
	C598.333313,416.500000 509.166656,416.500000 420.000000,416.500000 
	C390.333344,416.500000 360.666626,416.485413 331.000031,416.523560 
	C328.162048,416.527222 325.464996,416.438354 323.301758,413.730865 
	C327.594818,409.277374 333.686523,409.266937 339.017548,407.554626 
	C345.443451,405.490601 351.977539,403.746368 358.515045,402.058197 
	C360.252838,401.609467 361.942627,401.322083 363.538086,399.708862 
	C344.633728,328.541840 325.676239,257.174957 306.628082,185.466660 
	C291.442291,189.263565 276.971130,192.881775 262.500000,196.499985 
"/>
<path fill="none" opacity="1.000000" stroke="#000000" stroke-linecap="round" stroke-linejoin="round" stroke-width="6.000000"
	d="
M1014.000000,231.500000 
	C1015.058716,233.077469 1014.464844,234.843506 1014.466064,236.500031 
	C1014.506775,294.166656 1014.440674,351.833466 1014.562927,409.499878 
	C1014.581604,418.329010 1015.575745,427.135101 1015.564270,436.000092 
	C1015.456055,519.333252 1015.308716,602.667542 1015.689087,685.999146 
	C1015.752136,699.823669 1015.789124,713.670410 1015.884460,727.500793 
	C1016.193665,772.331970 1016.000000,817.166687 1016.000000,862.000000 
	C1016.000000,896.666687 1016.275635,931.336853 1015.828979,965.997803 
	C1015.697998,976.161133 1015.750000,986.334534 1015.545776,996.500916 
	C1015.513000,998.133728 1015.023804,999.542358 1014.500000,1001.000000 
"/>
<path fill="none" opacity="1.000000" stroke="#000000" stroke-linecap="round" stroke-linejoin="round" stroke-width="6.000000"
	d="
M664.500000,308.000000 
	C662.736389,306.554443 660.655457,306.484100 658.500000,306.484650 
	C585.666687,306.503113 512.833313,306.497772 440.000000,306.504425 
	C434.372223,306.504944 429.360901,312.320465 428.477356,319.497223 
	C427.142395,330.341248 426.992828,341.157928 428.471436,352.003906 
	C429.152588,357.000397 432.451874,360.688873 434.500000,365.000000 
"/>
<path fill="none" opacity="1.000000" stroke="#000000" stroke-linecap="round" stroke-linejoin="round" stroke-width="6.000000"
	d="
M776.000000,915.500000 
	C772.904541,913.644043 769.536987,913.452087 765.999939,913.455322 
	C699.333313,913.516052 632.666321,913.604309 566.000427,913.370789 
	C557.471252,913.340942 552.913086,916.538269 551.183044,924.539551 
	C548.361450,937.588928 547.987122,950.797852 551.300720,964.049805 
	C552.298340,968.039734 555.932312,970.117188 556.500000,974.000000 
"/>
<path fill="none" opacity="1.000000" stroke="#000000" stroke-linecap="round" stroke-linejoin="round" stroke-width="6.000000"
	d="
M66.500000,432.500000 
	C69.082657,432.222687 68.477921,434.113647 68.487900,435.500092 
	C68.520279,439.999847 68.500000,444.500000 68.500000,449.000000 
	C68.500000,534.333313 68.500000,619.666687 68.500000,705.000000 
	C68.500000,772.000000 68.427345,839.000122 68.551300,905.999878 
	C68.582123,922.665161 68.218613,939.332458 68.907784,956.003784 
	C69.265160,964.648865 68.633713,973.332825 68.512680,982.000183 
	C68.442863,986.999207 67.868980,992.104248 68.672981,996.971436 
	C69.519997,1002.098938 68.074562,1006.981323 68.424255,1012.005249 
	C68.770615,1016.981140 68.180519,1022.024719 68.565552,1026.994873 
	C69.404366,1037.822632 68.331039,1048.650269 69.007568,1059.530640 
	C69.426918,1066.275024 69.084785,1073.511963 68.500000,1080.500000 
"/>
<path fill="none" opacity="1.000000" stroke="#000000" stroke-linecap="round" stroke-linejoin="round" stroke-width="6.000000"
	d="
M303.500000,974.000000 
	C303.500000,908.000000 303.500000,842.000000 303.500000,776.000000 
	C303.500000,755.333313 303.503845,734.666687 303.497406,714.000000 
	C303.495697,708.518860 303.481171,708.505981 298.000000,708.502563 
	C285.000000,708.494568 272.000000,708.494568 259.000000,708.502625 
	C253.518829,708.505981 253.502640,708.518860 253.502426,714.000000 
	C253.498978,800.666687 253.500000,887.333313 253.500000,974.000000 
"/>
<path fill="none" opacity="1.000000" stroke="#000000" stroke-linecap="round" stroke-linejoin="round" stroke-width="6.000000"
	d="
M775.500000,973.000000 
	C777.507996,969.244751 778.064209,965.224304 778.032715,960.999756 
	C777.940735,948.667114 778.004944,936.333313 777.995667,924.000000 
	C777.993835,921.623596 778.457153,919.113708 776.952148,917.034668 
	C776.309326,916.146667 776.231262,915.023926 776.567993,914.548096 
	C779.784302,910.001709 778.433533,904.863342 778.441101,899.999878 
	C778.532166,841.500061 778.544373,782.999878 778.404175,724.500244 
	C778.394409,720.422729 779.507507,719.302063 783.502441,719.407104 
	C792.010681,719.630676 800.452271,721.060120 809.003723,720.564514 
	C812.394836,720.367981 815.875549,718.936707 819.500000,721.014526 
	C819.500000,805.166504 819.500000,889.583252 819.500000,974.000000 
"/>
<path fill="none" opacity="1.000000" stroke="#000000" stroke-linecap="round" stroke-linejoin="round" stroke-width="6.000000"
	d="
M413.000000,415.000000 
	C409.773529,403.335205 410.445953,391.388031 410.570618,379.500732 
	C410.600189,376.682739 411.394531,373.876221 411.631622,371.010895 
	C411.860687,368.242767 413.264069,366.339417 417.000366,366.348724 
	C422.994843,366.363678 428.990356,367.165466 435.102966,365.345886 
	C437.498596,364.632751 441.248901,366.504700 444.500000,366.504425 
	C515.833313,366.498627 587.166931,366.583466 658.499512,366.348846 
	C664.503235,366.329132 670.501526,366.628876 676.499268,366.472565 
	C679.059509,366.405884 680.552612,367.003845 680.536194,370.000183 
	C680.456299,384.666412 680.503235,399.333344 680.479065,413.999969 
	C680.478516,414.333588 680.166687,414.666687 680.000000,415.000000 
"/>
<path fill="none" opacity="1.000000" stroke="#000000" stroke-linecap="round" stroke-linejoin="round" stroke-width="6.000000"
	d="
M821.000000,741.000000 
	C822.603210,740.198730 824.325562,740.513611 826.000000,740.511719 
	C843.166687,740.492615 860.333313,740.500000 877.500000,740.500000 
	C885.073730,740.500000 887.389648,743.261658 885.939758,750.988708 
	C885.528625,753.180176 885.510925,755.326965 885.510559,757.500000 
	C885.497803,829.666687 885.500000,901.833313 885.500000,974.000000 
"/>
<path fill="none" opacity="1.000000" stroke="#000000" stroke-linecap="round" stroke-linejoin="round" stroke-width="6.000000"
	d="
M70.000000,712.000000 
	C71.771812,712.843384 73.661232,712.483154 75.500023,712.485718 
	C92.667053,712.509766 109.834145,712.500000 127.125687,712.500000 
	C128.471954,716.542603 128.442688,720.572937 128.446274,724.500061 
	C128.518158,803.166687 128.516434,881.833313 128.457291,960.499939 
	C128.453903,965.000244 127.833328,969.500000 127.499992,974.000000 
"/>
<path fill="none" opacity="1.000000" stroke="#000000" stroke-linecap="round" stroke-linejoin="round" stroke-width="6.000000"
	d="
M252.000000,725.000000 
	C233.166672,725.000000 214.333328,724.998047 195.500000,725.001099 
	C189.520599,725.002014 189.502960,725.008057 189.502670,731.000000 
	C189.498703,812.000000 189.500000,893.000000 189.500000,974.000000 
"/>
<path fill="none" opacity="1.000000" stroke="#000000" stroke-linecap="round" stroke-linejoin="round" stroke-width="6.000000"
	d="
M1013.500000,177.000000 
	C1012.002258,175.936844 1010.379272,175.466751 1008.499939,175.472610 
	C993.000061,175.521072 977.500000,175.492126 962.000061,175.518234 
	C960.996582,175.519928 959.993530,175.783310 958.825317,175.948257 
	C957.217102,187.123398 957.689148,198.346359 958.170593,209.492630 
	C958.445923,215.866684 958.007080,222.167374 958.032776,228.499863 
	C958.106506,246.666916 958.446472,264.833160 958.477234,283.000031 
	C958.548706,325.166565 958.504089,367.333344 958.486206,409.500000 
	C958.485474,411.338654 958.843384,413.228180 958.000000,415.000000 
"/>
<path fill="none" opacity="1.000000" stroke="#000000" stroke-linecap="round" stroke-linejoin="round" stroke-width="6.000000"
	d="
M887.500000,415.500000 
	C887.500000,348.000000 887.500061,280.500000 887.499817,213.000000 
	C887.499817,210.619278 887.913696,208.074097 886.440125,206.043442 
	C885.360474,204.555496 885.492615,202.006866 885.707397,201.613083 
	C889.346313,194.940079 887.090759,187.837387 887.400208,180.995483 
	C887.806519,172.013870 887.472290,162.999832 887.524963,154.000153 
	C887.534729,152.334244 886.937805,150.577118 888.611511,148.750000 
	C905.666687,148.750000 923.333313,148.750000 941.111572,148.750000 
	C941.257507,150.158661 941.438904,151.326660 941.490967,152.500397 
	C942.126099,166.826416 942.428467,181.257462 942.130432,195.492264 
	C940.629700,267.166626 942.151123,338.834839 941.480835,410.499817 
	C941.466797,412.001251 941.166687,413.500000 941.000000,415.000000 
"/>
<path fill="none" opacity="1.000000" stroke="#000000" stroke-linecap="round" stroke-linejoin="round" stroke-width="6.000000"
	d="
M885.000000,201.500000 
	C871.000000,193.666672 856.957825,185.907333 843.023071,177.959549 
	C838.200317,175.208832 837.805298,174.974579 835.033997,180.018677 
	C825.445862,197.470276 816.105408,215.058289 806.471619,232.484314 
	C795.929626,251.553238 785.118347,270.473053 774.512756,289.507080 
	C762.457458,311.142944 750.499451,332.833038 738.500244,354.500153 
	C733.331970,363.832581 728.127075,373.145081 723.015381,382.508392 
	C720.135620,387.783295 720.088745,388.018005 725.024780,390.958405 
	C734.774109,396.766113 744.635254,402.389069 754.521606,407.961609 
	C757.061340,409.393158 759.430664,410.859558 761.567200,412.930634 
	C764.662354,415.931091 768.998413,416.403168 773.000305,416.418335 
	C809.666443,416.557129 846.333313,416.500000 883.000000,416.500000 
	C886.666687,416.500000 890.334534,416.561981 893.999817,416.489807 
	C915.331848,416.069855 936.687073,416.025360 958.001465,415.957245 
	C974.121094,415.905701 990.339355,415.879761 1006.499695,416.507507 
	C1008.903809,416.600861 1011.248291,416.404694 1013.500000,415.500000 
"/>
<path fill="none" opacity="1.000000" stroke="#000000" stroke-linecap="round" stroke-linejoin="round" stroke-width="6.000000"
	d="
M887.000000,750.000000 
	C892.638367,748.871216 898.334229,749.644836 904.000671,749.536438 
	C911.664551,749.389709 919.336670,749.635254 926.998657,749.445251 
	C931.082642,749.344055 932.610229,750.919678 932.556458,755.000732 
	C932.398132,766.998657 932.500000,779.000000 932.500000,791.000000 
	C932.500000,852.000000 932.500000,913.000000 932.500000,974.000000 
"/>
<path fill="none" opacity="1.000000" stroke="#000000" stroke-linecap="round" stroke-linejoin="round" stroke-width="7.000000"
	d="
M1014.500000,730.500000 
	C995.833313,730.500000 977.166687,730.489380 958.500000,730.506775 
	C953.209106,730.511658 952.953125,730.727417 953.019409,735.999756 
	C953.107361,743.000732 953.838257,750.032593 953.388977,756.992859 
	C952.592102,769.337830 953.137695,781.667603 953.046692,794.000366 
	C952.881836,816.332458 952.940857,838.666931 953.021667,860.999939 
	C953.072266,875.000366 953.775330,889.012207 953.388245,902.996887 
	C952.903687,920.502319 953.120789,937.999817 953.031677,955.500183 
	C953.000305,961.665833 953.333374,967.833313 953.500061,974.000000 
"/>
<path fill="none" opacity="1.000000" stroke="#000000" stroke-linecap="round" stroke-linejoin="round" stroke-width="6.000000"
	d="
M885.500000,205.000000 
	C883.779907,205.724625 882.408508,206.893280 881.511841,208.506577 
	C870.493713,228.329834 859.676208,248.266968 848.458008,267.976105 
	C832.289307,296.382660 817.260498,325.416321 800.621887,353.572021 
	C788.825745,373.533386 778.166687,394.166656 767.000000,414.500000 
"/>
<path fill="none" opacity="1.000000" stroke="#000000" stroke-linecap="round" stroke-linejoin="round" stroke-width="6.000000"
	d="
M201.000000,188.000000 
	C198.893036,187.057220 196.665115,187.505905 194.500259,187.526978 
	C183.333023,187.635529 172.166382,187.817719 161.000351,188.019501 
	C159.581207,188.045135 158.166885,188.336273 156.500000,188.534134 
	C156.500000,197.331528 156.500000,206.165771 156.500000,215.000000 
	C156.500000,279.833344 156.497330,344.666656 156.513626,409.500000 
	C156.514084,411.338654 156.156647,413.228180 157.000000,415.000000 
"/>
<path fill="none" opacity="1.000000" stroke="#000000" stroke-linecap="round" stroke-linejoin="round" stroke-width="6.000000"
	d="
M491.000000,973.000000 
	C486.390991,965.603394 484.909027,957.024109 482.077972,948.972595 
	C472.374756,921.377319 462.974792,893.675293 453.506897,865.997620 
	C443.476196,836.674805 433.515472,807.328003 423.471466,778.009766 
	C422.642975,775.591370 421.414276,773.309143 419.397339,771.403442 
	C416.166992,773.291809 416.497406,776.451294 416.497559,779.500000 
	C416.500732,842.500000 416.502716,905.500000 416.486328,968.500000 
	C416.485870,970.338623 416.843353,972.228210 416.000000,974.000000 
"/>
<path fill="none" opacity="1.000000" stroke="#000000" stroke-linecap="round" stroke-linejoin="round" stroke-width="6.000000"
	d="
M642.000000,393.250031 
	C640.333313,393.333344 638.666687,393.489258 637.000000,393.489563 
	C571.833313,393.501862 506.666656,393.500000 441.500000,393.500000 
"/>
<path fill="none" opacity="1.000000" stroke="#000000" stroke-linecap="round" stroke-linejoin="round" stroke-width="7.000000"
	d="
M263.000000,216.500000 
	C258.711884,220.549744 260.815399,225.788620 260.669830,230.505249 
	C260.616608,232.230194 260.971771,234.171051 260.972778,236.000015 
	C261.005768,295.666656 261.000000,355.333344 261.000000,415.000000 
"/>
<path fill="none" opacity="1.000000" stroke="#000000" stroke-linecap="round" stroke-linejoin="round" stroke-width="6.000000"
	d="
M202.000000,415.000000 
	C202.390610,405.656708 201.865463,396.277588 201.992676,387.006775 
	C202.106277,378.726227 202.293121,370.313446 202.363724,361.998840 
	C202.677856,325.001495 202.500000,288.000000 202.500000,251.000000 
	C202.500000,233.833328 202.500000,216.666672 202.500000,199.500000 
	C202.500000,183.833328 202.487152,168.166656 202.506989,152.500015 
	C202.513916,147.034363 203.034363,146.513916 208.500015,146.506989 
	C224.166656,146.487152 239.834763,146.615158 255.498993,146.419250 
	C259.428040,146.370132 260.607269,147.575333 260.587921,151.500427 
	C260.523071,164.665970 260.635956,177.839905 261.074280,190.997528 
	C261.335693,198.844360 262.331085,206.666870 263.005219,214.499557 
	C263.048553,215.002991 262.985413,215.679214 263.276581,215.973709 
	C270.009460,222.783524 269.941315,232.190292 272.375519,240.536301 
	C278.759521,262.424591 284.603302,284.485291 290.277039,306.557312 
	C296.979218,332.630157 303.713074,358.697571 310.519684,384.744843 
	C312.727661,393.194275 315.177399,401.580383 317.489899,410.002777 
	C317.896149,411.482391 318.275421,412.945618 319.500000,414.000000 
"/>
<path fill="none" opacity="1.000000" stroke="#000000" stroke-linecap="round" stroke-linejoin="round" stroke-width="6.000000"
	d="
M363.000000,824.500000 
	C353.015869,823.380676 342.999084,824.232605 332.999268,824.038391 
	C329.587677,823.972168 326.126892,823.518127 322.500000,824.689575 
	C322.500000,826.334167 322.500000,828.167053 322.500000,830.000000 
	C322.500000,859.666687 322.496582,889.333313 322.502838,919.000000 
	C322.504089,925.055542 322.540283,925.342834 328.495850,924.938904 
	C340.164734,924.147522 351.834015,924.713440 363.500000,924.500000 
"/>
<path fill="none" opacity="1.000000" stroke="#000000" stroke-linecap="round" stroke-linejoin="round" stroke-width="7.000000"
	d="
M68.000000,4.000000 
	C68.000000,17.166666 67.628899,30.346893 68.109360,43.496002 
	C68.547897,55.497601 68.711128,67.599846 68.501167,79.491196 
	C68.147995,99.492668 67.891479,119.518364 68.249992,139.495514 
	C68.507622,153.851898 67.768280,168.162796 67.920853,182.500839 
	C68.199265,208.664551 68.000000,234.833328 68.000000,261.000000 
	C68.000000,276.666656 67.613220,292.345520 68.106491,307.996643 
	C68.621475,324.336609 68.312309,340.667023 68.462685,357.000336 
	C68.626869,374.832184 68.521027,392.666687 68.489853,410.499969 
	C68.477028,417.835541 68.971336,425.184967 68.000000,432.500000 
"/>
<path fill="none" opacity="1.000000" stroke="#000000" stroke-linecap="round" stroke-linejoin="round" stroke-width="6.000000"
	d="
M201.000000,246.000000 
	C194.858093,247.082611 188.663620,246.223495 182.500107,246.502197 
	C180.328613,246.600403 178.114487,246.155090 175.750000,247.140778 
	C175.750000,286.666656 175.750000,326.333344 175.750000,366.500000 
	C184.493668,366.500000 192.996841,366.500000 201.500000,366.500000 
"/>
<path fill="none" opacity="1.000000" stroke="#000000" stroke-linecap="round" stroke-linejoin="round" stroke-width="6.000000"
	d="
M656.000000,333.500000 
	C602.333313,333.500000 548.666687,333.502228 495.000000,333.489471 
	C493.333313,333.489075 491.666656,333.333344 490.000000,333.250031 
"/>
<path fill="none" opacity="1.000000" stroke="#000000" stroke-linecap="round" stroke-linejoin="round" stroke-width="6.000000"
	d="
M765.500000,940.500000 
	C712.833313,940.500000 660.166687,940.496704 607.500000,940.513733 
	C605.661377,940.514282 603.771790,940.156616 602.000000,941.000000 
"/>
<path fill="none" opacity="1.000000" stroke="#000000" stroke-linecap="round" stroke-linejoin="round" stroke-width="6.000000"
	d="
M418.500000,771.500000 
	C414.819092,749.775330 417.447418,727.809875 416.209137,705.750000 
	C399.000000,705.750000 382.000000,705.750000 364.500000,705.750000 
	C364.500000,795.332703 364.500000,884.666382 364.500000,974.000000 
"/>
<path fill="none" opacity="1.000000" stroke="#000000" stroke-linecap="round" stroke-linejoin="round" stroke-width="6.000000"
	d="
M70.000000,153.500000 
	C78.666664,153.500000 87.334473,153.579727 95.999374,153.456085 
	C98.971825,153.413681 100.695343,153.972107 100.546646,157.501968 
	C100.118683,167.660950 100.561974,177.829620 100.208786,188.007248 
	C99.996864,194.113983 99.883919,200.393280 100.692780,206.474350 
	C101.089340,209.455688 100.387741,212.164536 100.396431,215.000320 
	C100.541618,262.333221 100.500000,309.666656 100.500000,357.000000 
	C100.500000,376.500000 100.500000,396.000000 100.500000,415.500000 
"/>
<path fill="none" opacity="1.000000" stroke="#000000" stroke-linecap="round" stroke-linejoin="round" stroke-width="6.000000"
	d="
M137.000000,237.500000 
	C136.833344,240.500000 136.524796,243.499863 136.521729,246.500015 
	C136.487366,280.166656 136.467773,313.833405 136.522842,347.499969 
	C136.536469,355.833557 136.833344,364.166656 137.000015,372.500000 
"/>
<path fill="none" opacity="1.000000" stroke="#000000" stroke-linecap="round" stroke-linejoin="round" stroke-width="6.000000"
	d="
M903.250061,830.000000 
	C903.333374,838.333313 903.481140,846.666626 903.488586,855.000000 
	C903.516846,886.833313 903.500000,918.666687 903.500000,950.500000 
"/>
<path fill="none" opacity="1.000000" stroke="#000000" stroke-linecap="round" stroke-linejoin="round" stroke-width="6.000000"
	d="
M656.500000,345.000000 
	C654.922546,346.058685 653.156616,345.463684 651.499939,345.465668 
	C613.833313,345.510284 576.166687,345.500000 538.500000,345.500000 
"/>
<path fill="none" opacity="1.000000" stroke="#000000" stroke-linecap="round" stroke-linejoin="round" stroke-width="6.000000"
	d="
M283.500000,778.500000 
	C283.500000,817.500000 283.500000,856.500000 283.500000,895.500000 
"/>
<path fill="none" opacity="1.000000" stroke="#000000" stroke-linecap="round" stroke-linejoin="round" stroke-width="5.000000"
	d="
M766.000000,952.000000 
	C759.333313,952.333313 752.667542,952.933594 745.999878,952.954651 
	C714.000183,953.055603 682.000000,953.000000 650.000000,953.000000 
"/>
<path fill="none" opacity="1.000000" stroke="#000000" stroke-linecap="round" stroke-linejoin="round" stroke-width="6.000000"
	d="
M144.000015,853.500000 
	C143.833344,856.500000 143.526535,859.499817 143.522034,862.500061 
	C143.483627,888.166687 143.477753,913.833374 143.522400,939.499939 
	C143.529648,943.666931 143.833328,947.833313 144.000000,952.000000 
"/>
<path fill="none" opacity="1.000000" stroke="#000000" stroke-linecap="round" stroke-linejoin="round" stroke-width="7.000000"
	d="
M995.250000,243.000000 
	C996.216980,259.505310 994.657227,275.998077 995.003235,292.499939 
	C995.226868,303.165802 994.475708,313.845825 995.470459,324.502747 
	C995.530701,325.148254 995.166687,325.833344 995.000000,326.500000 
"/>
<path fill="none" opacity="1.000000" stroke="#000000" stroke-linecap="round" stroke-linejoin="round" stroke-width="7.000000"
	d="
M494.500000,973.500000 
	C473.078094,976.684998 451.493500,974.711060 429.994476,975.296753 
	C408.352966,975.886475 386.657104,974.286499 365.002899,974.665283 
	C346.164154,974.994812 327.331329,974.977295 308.500244,974.921021 
	C290.001404,974.865784 271.503540,975.326660 252.993042,974.708435 
	C246.392670,974.488037 239.664429,974.945435 232.999908,974.962158 
	C199.833435,975.045044 166.666672,975.000000 133.500000,975.000000 
	C112.333336,975.000000 91.166664,975.000000 70.000000,975.000000 
"/>
<path fill="none" opacity="1.000000" stroke="#000000" stroke-linecap="round" stroke-linejoin="round" stroke-width="6.000000"
	d="
M1015.250000,89.000000 
	C1015.280090,94.180222 1016.073730,99.309334 1014.723572,104.557510 
	C1014.236389,106.451141 1015.524597,109.097755 1015.519592,111.500038 
	C1015.483154,128.999969 1016.288879,146.545944 1015.273010,163.986786 
	C1014.301392,180.669006 1014.049011,197.321014 1014.026611,214.000031 
	C1014.020081,218.833130 1014.364685,223.665939 1014.478333,228.500504 
	C1014.507446,229.737198 1015.089600,231.709274 1012.500000,230.750000 
"/>
<path fill="none" opacity="1.000000" stroke="#000000" stroke-linecap="round" stroke-linejoin="round" stroke-width="6.000000"
	d="
M323.500000,414.500000 
	C305.283569,418.381073 286.835754,416.049408 268.498260,416.411407 
	C248.672653,416.802765 228.833328,416.500000 209.000000,416.500000 
	C194.000000,416.500000 179.000000,416.500000 164.000000,416.500000 
	C145.000000,416.500000 126.000000,416.500000 107.000000,416.500000 
	C94.666664,416.500000 82.333336,416.500000 70.000000,416.500000 
"/>
<path fill="none" opacity="1.000000" stroke="#000000" stroke-linecap="round" stroke-linejoin="round" stroke-width="6.000000"
	d="
M363.000000,768.500000 
	C345.333344,768.500000 327.666656,768.492798 310.000000,768.511719 
	C308.325531,768.513489 306.603210,768.198730 305.000000,769.000000 
"/>
<path fill="none" opacity="1.000000" stroke="#000000" stroke-linecap="round" stroke-linejoin="round" stroke-width="6.000000"
	d="
M130.000000,753.500000 
	C149.333328,753.500000 168.666672,753.500000 188.000000,753.500000 
"/>
<path fill="none" opacity="1.000000" stroke="#000000" stroke-linecap="round" stroke-linejoin="round" stroke-width="6.000000"
	d="
M155.000000,208.000000 
	C153.396790,208.801270 151.674469,208.486176 149.999985,208.488235 
	C134.000015,208.507935 118.000000,208.500000 102.000000,208.500000 
"/>
<path fill="none" opacity="1.000000" stroke="#000000" stroke-linecap="round" stroke-linejoin="round" stroke-width="6.000000"
	d="
M993.500000,326.500000 
	C996.857300,326.488007 995.427795,329.065552 995.438293,330.500458 
	C995.540771,344.499695 995.500000,358.500000 995.500000,372.500000 
"/>
<path fill="none" opacity="1.000000" stroke="#000000" stroke-linecap="round" stroke-linejoin="round" stroke-width="6.000000"
	d="
M360.500000,939.500000 
	C348.832092,939.580566 337.161316,939.259949 325.497528,939.958801 
	C322.347168,940.147522 319.166656,939.833313 316.000000,939.750000 
"/>
<path fill="none" opacity="1.000000" stroke="#000000" stroke-linecap="round" stroke-linejoin="round" stroke-width="6.000000"
	d="
M358.000000,809.000000 
	C353.870728,810.101868 349.663025,809.435486 345.499786,809.456299 
	C335.333801,809.507019 325.166656,809.333374 315.000000,809.250000 
"/>
<path fill="none" opacity="1.000000" stroke="#000000" stroke-linecap="round" stroke-linejoin="round" stroke-width="6.000000"
	d="
M118.000000,946.750000 
	C103.833336,946.666687 89.666664,946.583374 75.500000,946.500000 
"/>
<path fill="none" opacity="1.000000" stroke="#000000" stroke-linecap="round" stroke-linejoin="round" stroke-width="6.000000"
	d="
M117.500000,753.500000 
	C104.166664,753.500000 90.833336,753.500000 77.500000,753.500000 
"/>
<path fill="none" opacity="1.000000" stroke="#000000" stroke-linecap="round" stroke-linejoin="round" stroke-width="6.000000"
	d="
M117.000000,770.750000 
	C103.833336,770.666687 90.666664,770.583374 77.500000,770.500000 
"/>
<path fill="none" opacity="1.000000" stroke="#000000" stroke-linecap="round" stroke-linejoin="round" stroke-width="6.000000"
	d="
M179.500000,793.500000 
	C166.500000,793.500000 153.500000,793.500000 140.500000,793.500000 
"/>
<path fill="none" opacity="1.000000" stroke="#000000" stroke-linecap="round" stroke-linejoin="round" stroke-width="6.000000"
	d="
M117.000000,929.250000 
	C104.166664,929.333313 91.333336,929.416687 78.500000,929.500000 
"/>
<path fill="none" opacity="1.000000" stroke="#000000" stroke-linecap="round" stroke-linejoin="round" stroke-width="6.000000"
	d="
M179.000000,779.000000 
	C165.511032,780.060242 151.998871,779.242371 138.500000,779.500000 
"/>
<path fill="none" opacity="1.000000" stroke="#000000" stroke-linecap="round" stroke-linejoin="round" stroke-width="6.000000"
	d="
M201.000000,387.000000 
	C190.014832,385.854797 178.997040,386.836670 168.000565,386.482483 
	C165.532135,386.403015 166.044952,388.085510 166.000000,389.500000 
"/>
<path fill="none" opacity="1.000000" stroke="#000000" stroke-linecap="round" stroke-linejoin="round" stroke-width="5.000000"
	d="
M474.000000,786.249939 
	C463.666656,789.999939 453.353149,793.807312 442.964508,797.397217 
	C442.078064,797.703491 441.502319,798.574341 440.499207,798.513184 
	C440.338196,798.503235 440.166626,798.666626 440.000000,798.750000 
	C440.083344,798.833313 440.166687,798.916626 440.250031,799.000000 
"/>
<path fill="none" opacity="1.000000" stroke="#000000" stroke-linecap="round" stroke-linejoin="round" stroke-width="6.000000"
	d="
M201.000000,229.499985 
	C189.333328,229.416656 177.666672,229.333328 166.000000,229.249985 
"/>
<path fill="none" opacity="1.000000" stroke="#000000" stroke-linecap="round" stroke-linejoin="round" stroke-width="6.000000"
	d="
M327.500000,292.500000 
	C323.286926,291.888245 319.377563,293.714996 315.563232,294.736176 
	C309.717072,296.301331 303.890533,298.105865 297.971100,299.364014 
	C295.527283,299.883392 296.136475,301.146545 296.000000,302.500000 
"/>
<path fill="none" opacity="1.000000" stroke="#000000" stroke-linecap="round" stroke-linejoin="round" stroke-width="5.000000"
	d="
M821.500000,219.500000 
	C821.269226,221.756393 822.926086,222.584106 824.497803,223.503799 
	C834.168884,229.162918 843.833313,234.833328 853.500000,240.500000 
"/>
<path fill="none" opacity="1.000000" stroke="#000000" stroke-linecap="round" stroke-linejoin="round" stroke-width="6.000000"
	d="
M518.500000,916.499939 
	C507.333313,920.499939 496.166656,924.499939 485.000000,928.499939 
"/>
<path fill="none" opacity="1.000000" stroke="#000000" stroke-linecap="round" stroke-linejoin="round" stroke-width="5.000000"
	d="
M524.500000,930.500000 
	C512.865356,933.442505 501.930054,938.451721 490.514435,942.045898 
	C490.067993,942.186462 489.833374,943.000000 489.500031,943.500000 
"/>
<path fill="none" opacity="1.000000" stroke="#000000" stroke-linecap="round" stroke-linejoin="round" stroke-width="6.000000"
	d="
M769.500000,392.500000 
	C759.333313,386.666687 749.148499,380.864441 739.030884,374.947205 
	C738.118042,374.413330 737.332947,374.668518 736.500000,374.500000 
"/>
<path fill="none" opacity="1.000000" stroke="#000000" stroke-linecap="round" stroke-linejoin="round" stroke-width="6.000000"
	d="
M294.500000,922.500000 
	C283.501282,922.752136 272.486603,921.948486 261.500000,923.000000 
"/>
<path fill="none" opacity="1.000000" stroke="#000000" stroke-linecap="round" stroke-linejoin="round" stroke-width="6.000000"
	d="
M468.499969,772.499939 
	C458.333313,776.166626 448.183075,779.880371 437.978516,783.438416 
	C436.750336,783.866699 435.626007,783.949158 435.500000,785.500000 
"/>
<path fill="none" opacity="1.000000" stroke="#000000" stroke-linecap="round" stroke-linejoin="round" stroke-width="6.000000"
	d="
M407.500000,733.000000 
	C396.673035,733.911804 385.836365,733.559814 375.000000,733.250000 
"/>
<path fill="none" opacity="1.000000" stroke="#000000" stroke-linecap="round" stroke-linejoin="round" stroke-width="6.000000"
	d="
M406.500000,748.000000 
	C395.847076,749.045410 385.165344,748.248169 374.500000,748.500000 
"/>
<path fill="none" opacity="1.000000" stroke="#000000" stroke-linecap="round" stroke-linejoin="round" stroke-width="6.000000"
	d="
M308.500000,223.999985 
	C299.166656,226.666656 289.836090,229.342987 280.495911,231.985504 
	C279.526367,232.259827 278.500000,232.333344 277.500000,232.500015 
"/>
<path fill="none" opacity="1.000000" stroke="#000000" stroke-linecap="round" stroke-linejoin="round" stroke-width="6.000000"
	d="
M330.500000,303.500000 
	C322.786041,304.458008 315.507172,307.196350 307.997986,308.991516 
	C305.677704,309.546173 303.338531,310.026154 300.997803,310.488892 
	C299.841095,310.717560 299.396332,311.380585 299.500000,312.500000 
"/>
<path fill="none" opacity="1.000000" stroke="#000000" stroke-linecap="round" stroke-linejoin="round" stroke-width="5.000000"
	d="
M828.500000,209.500000 
	C835.965088,212.484009 842.364868,217.406555 849.478943,221.041245 
	C853.264465,222.975311 856.833313,225.333328 860.500000,227.500000 
"/>
<path fill="none" opacity="1.000000" stroke="#000000" stroke-linecap="round" stroke-linejoin="round" stroke-width="6.000000"
	d="
M746.000000,362.000000 
	C755.333313,367.500000 764.647339,373.033508 774.029602,378.448700 
	C774.978027,378.996124 775.603699,379.380585 775.500000,380.500000 
"/>
<path fill="none" opacity="1.000000" stroke="#000000" stroke-linecap="round" stroke-linejoin="round" stroke-width="6.000000"
	d="
M1015.250061,33.000000 
	C1015.333374,47.000000 1015.788147,61.014248 1015.252075,74.990486 
	C1015.108948,78.720055 1015.595459,82.332901 1015.509460,86.000221 
	C1015.476929,87.386353 1015.681885,88.878822 1013.500000,88.500000 
"/>
<path fill="none" opacity="1.000000" stroke="#000000" stroke-linecap="round" stroke-linejoin="round" stroke-width="6.000000"
	d="
M69.500000,188.500000 
	C79.333336,188.500000 89.166664,188.500000 99.000000,188.500000 
"/>
<path fill="none" opacity="1.000000" stroke="#000000" stroke-linecap="round" stroke-linejoin="round" stroke-width="6.000000"
	d="
M923.500000,787.500000 
	C913.666687,787.416687 903.833313,787.333313 894.000000,787.250000 
"/>
<path fill="none" opacity="1.000000" stroke="#000000" stroke-linecap="round" stroke-linejoin="round" stroke-width="7.000000"
	d="
M294.000000,938.250000 
	C284.333344,938.166687 274.666656,938.083374 265.000000,938.000000 
"/>
<path fill="none" opacity="1.000000" stroke="#000000" stroke-linecap="round" stroke-linejoin="round" stroke-width="6.000000"
	d="
M70.000000,363.500000 
	C79.666664,363.500000 89.333336,363.500000 99.000000,363.500000 
"/>
<path fill="none" opacity="1.000000" stroke="#000000" stroke-linecap="round" stroke-linejoin="round" stroke-width="6.000000"
	d="
M923.000000,802.000000 
	C913.341125,802.986328 903.669556,802.500000 894.000000,802.250000 
"/>
<path fill="none" opacity="1.000000" stroke="#000000" stroke-linecap="round" stroke-linejoin="round" stroke-width="6.000000"
	d="
M305.000000,212.999985 
	C295.500000,215.499985 286.000000,217.999985 276.500000,220.499985 
"/>
<path fill="none" opacity="1.000000" stroke="#000000" stroke-linecap="round" stroke-linejoin="round" stroke-width="6.000000"
	d="
M812.500000,933.000000 
	C803.500000,932.748291 794.500000,931.844238 785.500000,933.000000 
"/>
<path fill="none" opacity="1.000000" stroke="#000000" stroke-linecap="round" stroke-linejoin="round" stroke-width="6.000000"
	d="
M404.000000,927.750000 
	C395.166656,927.666626 386.333344,927.583313 377.500000,927.500000 
"/>
<path fill="none" opacity="1.000000" stroke="#000000" stroke-linecap="round" stroke-linejoin="round" stroke-width="6.000000"
	d="
M1005.500000,1002.500000 
	C1007.035583,998.216675 1010.547852,1000.928894 1013.018555,1000.703003 
	C1014.955383,1000.525940 1015.570679,1002.962585 1015.510315,1005.000305 
	C1015.234009,1014.331421 1015.252380,1023.685974 1015.286743,1032.998901 
	C1015.309937,1039.302124 1014.798828,1045.636963 1015.305969,1052.015381 
	C1016.056519,1061.455811 1015.500000,1071.000000 1015.500000,1080.500000 
"/>
<path fill="none" opacity="1.000000" stroke="#000000" stroke-linecap="round" stroke-linejoin="round" stroke-width="6.000000"
	d="
M669.000000,306.250000 
	C663.628906,306.701385 662.271790,311.450226 660.664673,315.073059 
	C657.757935,321.625702 656.960571,328.775055 657.489990,336.000732 
	C657.745972,339.494995 657.636536,342.996887 657.881653,346.508270 
	C658.378174,353.620148 662.069519,359.210541 665.500000,365.000000 
"/>
<path fill="none" opacity="1.000000" stroke="#000000" stroke-linecap="round" stroke-linejoin="round" stroke-width="6.000000"
	d="
M811.500000,764.500000 
	C803.333313,764.416687 795.166687,764.333313 787.000000,764.250000 
"/>
<path fill="none" opacity="1.000000" stroke="#000000" stroke-linecap="round" stroke-linejoin="round" stroke-width="6.000000"
	d="
M774.000000,917.000000 
	C769.447876,922.138550 767.821350,928.255981 767.435120,934.996277 
	C766.954163,943.388489 766.504700,951.705017 768.441101,960.013733 
	C769.476074,964.454285 772.059387,968.049194 774.000000,972.000000 
"/>
<path fill="none" opacity="1.000000" stroke="#000000" stroke-linecap="round" stroke-linejoin="round" stroke-width="6.000000"
	d="
M1015.500000,3.500000 
	C1015.002075,10.325303 1016.211365,17.172649 1014.746887,24.052555 
	C1014.351440,25.910494 1015.479919,28.619484 1015.506714,30.999924 
	C1015.523193,32.460243 1014.680054,32.684528 1013.500000,32.500000 
"/>
<path fill="none" opacity="1.000000" stroke="#000000" stroke-linecap="round" stroke-linejoin="round" stroke-width="6.000000"
	d="
M934.000000,762.500000 
	C939.833313,762.500000 945.666687,762.500000 951.500000,762.500000 
"/>
<path fill="none" opacity="1.000000" stroke="#000000" stroke-linecap="round" stroke-linejoin="round" stroke-width="6.000000"
	d="
M943.000000,195.500000 
	C947.500000,195.500000 952.000000,195.500000 956.500000,195.500000 
"/>
<path fill="none" opacity="1.000000" stroke="#000000" stroke-linecap="round" stroke-linejoin="round" stroke-width="6.000000"
	d="
M222.500000,188.500000 
	C219.501450,189.485382 220.545883,192.037033 220.540588,194.000107 
	C220.477600,217.333267 220.500000,240.666672 220.500000,264.000000 
	C220.500000,306.500000 220.499344,349.000000 220.500671,391.500000 
	C220.500885,398.351624 220.649292,398.563843 227.499664,398.474396 
	C231.667084,398.419983 235.864014,398.933563 240.500000,397.964661 
	C240.500000,328.333344 240.500000,258.666656 240.500000,188.500000 
	C234.335815,188.500000 228.667908,188.500000 223.000000,188.500000 
"/>
<path fill="none" opacity="1.000000" stroke="#000000" stroke-linecap="round" stroke-linejoin="round" stroke-width="6.000000"
	d="
M971.500000,757.500000 
	C968.055054,758.146240 969.019836,760.853027 969.018372,763.000000 
	C968.992981,800.833313 969.000000,838.666687 969.000000,876.500000 
	C969.000000,898.500000 969.097778,920.500854 968.910889,942.499268 
	C968.876892,946.498047 970.305237,947.629761 974.001038,947.547974 
	C981.334595,947.385742 988.674194,947.500000 996.250000,947.500000 
	C996.250000,884.000000 996.250000,821.000000 996.250000,757.500000 
	C988.006409,757.500000 980.003174,757.500000 972.000000,757.500000 
"/>
<path fill="none" opacity="1.000000" stroke="#000000" stroke-linecap="round" stroke-linejoin="round" stroke-width="6.000000"
	d="
M905.500000,216.500000 
	C903.366638,217.277756 902.965820,218.900345 902.968445,221.000046 
	C903.012695,255.833313 902.982239,290.666687 903.037354,325.499939 
	C903.041321,328.005554 903.578064,330.510315 903.922974,333.500000 
	C909.664185,333.500000 915.332764,333.549133 920.999695,333.474915 
	C923.152405,333.446747 924.343201,332.152466 924.488586,329.999237 
	C924.555786,329.003754 924.500000,328.000000 924.500000,327.000000 
	C924.500000,292.000000 924.507568,257.000000 924.476501,222.000015 
	C924.475037,220.334991 925.062195,218.577118 923.159424,216.500000 
	C918.002502,216.500000 912.001221,216.500000 906.000000,216.500000 
"/>
<path fill="none" opacity="1.000000" stroke="#000000" stroke-linecap="round" stroke-linejoin="round" stroke-width="6.000000"
	d="
M842.500000,784.000000 
	C839.560364,784.381653 838.408936,785.745056 838.416443,789.000183 
	C838.535278,840.666626 838.497437,892.333313 838.514526,944.000000 
	C838.515015,945.339783 838.042786,946.765503 839.801331,948.250000 
	C848.000000,948.250000 857.000000,948.250000 865.844482,948.250000 
	C866.749939,946.219666 866.493591,944.344055 866.493896,942.500000 
	C866.501587,892.166687 866.488647,841.833313 866.515137,791.500000 
	C866.518250,785.556396 866.627808,783.542725 858.997131,783.945801 
	C853.678650,784.226746 848.333313,784.000000 843.000000,784.000000 
"/>
</svg>